HIERARCHY
ROOT Hips
{
 OFFSET 0.000000 0.000000 0.000000
 CHANNELS 6 Xposition Yposition Zposition Yrotation Xrotation Zrotation
 JOINT Chest
 {
  OFFSET 0.000000 9.588913 -0.003946
  CHANNELS 3 Yrotation Xrotation Zrotation
  JOINT Chest2
  {
   OFFSET 0.000000 9.541882 0.008053
   CHANNELS 3 Yrotation Xrotation Zrotation
   JOINT Chest3
   {
    OFFSET 0.000000 9.501360 0.000000
    CHANNELS 3 Yrotation Xrotation Zrotation
    JOINT Chest4
    {
     OFFSET 0.000000 9.491660 0.000000
     CHANNELS 3 Yrotation Xrotation Zrotation
     JOINT Neck
     {
      OFFSET 0.000000 14.331917 0.000000
      CHANNELS 3 Yrotation Xrotation Zrotation
      JOINT Head
      {
       OFFSET 0.000000 8.884799 0.017034
       CHANNELS 3 Yrotation Xrotation Zrotation
       End Site
       {
        OFFSET 0.000000 16.896195 0.008993
       }
      }
     }
     JOINT RightCollar
     {
      OFFSET -2.923010 9.499495 0.000000
      CHANNELS 3 Yrotation Xrotation Zrotation
      JOINT RightShoulder
      {
       OFFSET -13.795216 0.000000 0.000000
       CHANNELS 3 Yrotation Xrotation Zrotation
       JOINT RightElbow
       {
        OFFSET -30.272209 0.000000 0.000000
        CHANNELS 3 Yrotation Xrotation Zrotation
        JOINT RightWrist
        {
         OFFSET -24.478199 0.000000 0.000000
         CHANNELS 3 Yrotation Xrotation Zrotation
         End Site
         {
          OFFSET -18.090752 0.000000 0.000000
         }
        }
       }
      }
     }
     JOINT LeftCollar
     {
      OFFSET 2.923010 9.499495 0.000000
      CHANNELS 3 Yrotation Xrotation Zrotation
      JOINT LeftShoulder
      {
       OFFSET 13.795216 0.000000 0.000000
       CHANNELS 3 Yrotation Xrotation Zrotation
       JOINT LeftElbow
       {
        OFFSET 30.272209 0.000000 0.000000
        CHANNELS 3 Yrotation Xrotation Zrotation
        JOINT LeftWrist
        {
         OFFSET 24.478199 0.000000 0.000000
         CHANNELS 3 Yrotation Xrotation Zrotation
         End Site
         {
          OFFSET 18.090752 0.000000 0.000000
         }
        }
       }
      }
     }
    }
   }
  }
 }
 JOINT RightHip
 {
  OFFSET -7.826875 0.019532 0.001973
  CHANNELS 3 Yrotation Xrotation Zrotation
  JOINT RightKnee
  {
   OFFSET 0.000000 -40.546152 -0.001885
   CHANNELS 3 Yrotation Xrotation Zrotation
   JOINT RightAnkle
   {
    OFFSET 0.000000 -39.417092 -0.003189
    CHANNELS 3 Yrotation Xrotation Zrotation
    JOINT RightToe
    {
     OFFSET 0.000000 -7.579396 17.243563
     CHANNELS 3 Yrotation Xrotation Zrotation
     End Site
     {
      OFFSET 0.000000 -1.500329 6.694466
     }
    }
   }
  }
 }
 JOINT LeftHip
 {
  OFFSET 7.826875 0.019532 0.001973
  CHANNELS 3 Yrotation Xrotation Zrotation
  JOINT LeftKnee
  {
   OFFSET 0.000000 -40.546152 -0.001885
   CHANNELS 3 Yrotation Xrotation Zrotation
   JOINT LeftAnkle
   {
    OFFSET 0.000000 -39.417092 -0.003189
    CHANNELS 3 Yrotation Xrotation Zrotation
    JOINT LeftToe
    {
     OFFSET 0.000000 -7.579396 17.243563
     CHANNELS 3 Yrotation Xrotation Zrotation
     End Site
     {
      OFFSET 0.000000 -1.500329 6.694466
     }
    }
   }
  }
 }
}
MOTION
Frames: 12
Frame Time: 0.008333
-9.281977 50.910965 -16.085102 32.007291 -31.101664 -6.273868 2.721415 17.042062 2.090017 1.572776 9.762056 1.027425 2.001168 12.197727 1.331794 1.572776 9.762056 1.027425 2.290653 14.971172 -3.236027 3.169538 -9.933452 -3.955386 9.037176 -14.064730 -15.172767 19.660177 -43.939301 46.067776 95.235785 -12.427199 9.943920 -15.625413 -3.265309 -5.752921 20.405604 -3.203242 -1.869511 -5.372104 -4.982948 -83.515628 -61.966469 -4.345123 -40.500655 -2.893076 9.088071 26.558541 -20.691027 -46.027389 21.284896 -123.570618 65.774738 -134.022985 -14.164053 -22.406595 10.503245 -0.149177 0.268617 -0.067282 19.682333 -54.865036 0.153927 135.686815 66.363111 152.351702 -8.531306 -24.278956 -0.157337 0.038059 -0.247162 0.009631
-9.282403 50.910479 -16.083580 32.006449 -31.078343 -6.289976 2.735189 17.049865 2.092387 1.576607 9.765972 1.025865 2.005949 12.202617 1.329963 1.576607 9.765972 1.025865 2.280882 14.953563 -3.231009 3.157775 -9.952505 -3.947494 9.058223 -14.081688 -15.198829 19.726884 -43.942699 46.010141 95.157227 -12.352793 9.877371 -15.686038 -3.259209 -5.720795 20.412447 -3.217441 -1.877936 -5.381043 -4.979236 -83.499581 -62.012688 -4.370302 -40.496782 -2.894024 9.101059 26.539565 -20.704145 -46.044808 21.306278 -123.585148 65.776993 -134.030750 -14.165698 -22.406023 10.508509 -0.149445 0.265312 -0.068372 19.671903 -54.895426 0.166422 135.693239 66.359728 152.359851 -8.516214 -24.282814 -0.163791 0.041883 -0.245746 0.011321
-9.282859 50.910003 -16.081944 32.002343 -31.055053 -6.304426 2.743724 17.057980 2.091847 1.579138 9.769746 1.024076 2.009093 12.207335 1.327809 1.579138 9.769746 1.024076 2.276177 14.935564 -3.230096 3.152487 -9.971681 -3.945323 9.085651 -14.099144 -15.227290 19.790815 -43.953559 45.966028 95.075956 -12.277256 9.816546 -15.751495 -3.249530 -5.689191 20.428427 -3.230066 -1.887987 -5.380844 -4.975310 -83.487547 -62.054208 -4.393132 -40.495979 -2.893181 9.114791 26.514821 -20.715700 -46.062043 21.328419 -123.598816 65.779404 -134.036513 -14.176515 -22.405468 10.517005 -0.153046 0.263447 -0.070661 19.661713 -54.927120 0.181961 135.699109 66.354964 152.365677 -8.504474 -24.284631 -0.170184 0.044406 -0.246321 0.013909
-9.283632 50.909362 -16.080333 31.993320 -31.029648 -6.317960 2.749346 17.063707 2.089719 1.581363 9.773163 1.022175 2.011848 12.211608 1.325503 1.581363 9.773163 1.022175 2.274606 14.917818 -3.233097 3.151546 -9.990365 -3.948182 9.114660 -14.116316 -15.253177 19.846150 -43.978804 45.938193 94.986804 -12.213538 9.777004 -15.809046 -3.237568 -5.664419 20.445775 -3.240735 -1.898495 -5.363453 -4.970447 -83.480048 -62.082634 -4.419806 -40.508118 -2.886454 9.128145 26.485958 -20.724500 -46.079545 21.355384 -123.607640 65.781624 -134.037738 -14.189321 -22.408256 10.522993 -0.149682 0.265253 -0.069005 19.655235 -54.961425 0.199496 135.699047 66.350813 152.366484 -8.502454 -24.286208 -0.171047 0.040219 -0.246247 0.013870
-9.283652 50.908543 -16.079104 31.989677 -31.002189 -6.329713 2.753992 17.069281 2.085293 1.583496 9.775675 1.020261 2.014484 12.214749 1.323174 1.583496 9.775675 1.020261 2.271108 14.900699 -3.237571 3.148899 -10.008386 -3.952160 9.139382 -14.132394 -15.273477 19.886136 -44.016952 45.927968 94.887340 -12.166594 9.760980 -15.844215 -3.229036 -5.650925 20.454037 -3.250692 -1.908054 -5.336121 -4.964712 -83.472605 -62.098736 -4.450357 -40.529650 -2.881340 9.135862 26.460876 -20.732761 -46.101004 21.377987 -123.616487 65.781104 -134.039024 -14.212645 -22.408886 10.535968 -0.149604 0.266273 -0.068610 19.656918 -54.994075 0.204290 135.693131 66.349335 152.364726 -8.503913 -24.289729 -0.172408 0.039104 -0.243032 0.015348
-9.283212 50.907570 -16.078073 31.991155 -30.972611 -6.341925 2.760870 17.073863 2.080738 1.585632 9.777550 1.018730 2.017130 12.217093 1.321322 1.585632 9.777550 1.018730 2.265128 14.884286 -3.242248 3.143633 -10.025720 -3.955743 9.160864 -14.148239 -15.289894 19.911829 -44.058296 45.933553 94.779594 -12.135315 9.761128 -15.847664 -3.229283 -5.652530 20.452429 -3.261320 -1.914800 -5.303948 -4.958358 -83.465091 -62.111538 -4.476691 -40.553203 -2.882305 9.137862 26.439701 -20.745267 -46.126866 21.400265 -123.626124 65.778405 -134.041768 -14.242107 -22.403754 10.552251 -0.150857 0.263304 -0.068835 19.662662 -55.027140 0.201510 135.688565 66.348846 152.366871 -8.509433 -24.295710 -0.172648 0.039491 -0.237957 0.017592
-9.282485 50.906614 -16.076851 31.992938 -30.943063 -6.354527 2.769811 17.077595 2.075988 1.588957 9.779457 1.017878 2.021287 12.219470 1.320354 1.588957 9.779457 1.017878 2.256651 14.868334 -3.246035 3.135461 -10.042662 -3.957739 9.181008 -14.165170 -15.306082 19.931317 -44.092020 45.944942 94.669154 -12.119667 9.764845 -15.823518 -3.238083 -5.672090 20.444374 -3.272893 -1.919361 -5.282394 -4.952607 -83.457618 -62.125489 -4.508229 -40.556107 -2.879684 9.142356 26.409133 -20.762763 -46.153008 21.426479 -123.635670 65.774111 -134.047649 -14.270791 -22.396040 10.567912 -0.150077 0.257448 -0.068361 19.665566 -55.059880 0.200175 135.691135 66.348993 152.375534 -8.516873 -24.302291 -0.170151 0.036860 -0.233183 0.017839
-9.280180 50.905996 -16.075346 31.996528 -30.918324 -6.362335 2.775879 17.085252 2.066941 1.593039 9.781978 1.017062 2.026397 12.222612 1.319456 1.593039 9.781978 1.017062 2.246496 14.852343 -3.249128 3.125312 -10.059711 -3.958563 9.202978 -14.182267 -15.326178 19.956653 -44.113058 45.948696 94.560827 -12.117569 9.760146 -15.781006 -3.254512 -5.706561 20.433272 -3.284360 -1.923748 -5.278859 -4.949085 -83.449563 -62.136817 -4.555774 -40.532862 -2.870154 9.150225 26.371237 -20.776480 -46.176884 21.444915 -123.648620 65.767572 -134.058427 -14.309751 -22.386540 10.592965 -0.159620 0.250160 -0.072622 19.667739 -55.084819 0.195073 135.693939 66.348908 152.383051 -8.527279 -24.308030 -0.167806 0.037587 -0.230048 0.017953
-9.277702 50.905577 -16.073320 31.993262 -30.896069 -6.369167 2.781824 17.093952 2.059037 1.597148 9.785031 1.016349 2.031547 12.226419 1.318690 1.597148 9.785031 1.016349 2.238338 14.836318 -3.253663 3.117671 -10.076688 -3.961452 9.235783 -14.195401 -15.354682 19.991795 -44.123738 45.940438 94.458597 -12.121363 9.740665 -15.728633 -3.277014 -5.744725 20.433133 -3.294806 -1.932125 -5.287798 -4.946907 -83.441194 -62.144777 -4.605023 -40.508112 -2.858896 9.155687 26.340377 -20.785898 -46.198756 21.463920 -123.664937 65.760463 -134.072586 -14.336981 -22.379640 10.613852 -0.168458 0.242611 -0.076551 19.670554 -55.107795 0.197116 135.696838 66.348144 152.390100 -8.538504 -24.315358 -0.164552 0.039966 -0.227274 0.017511
-9.276701 50.904834 -16.071154 31.978741 -30.869038 -6.380298 2.791416 17.097383 2.057217 1.601750 9.787334 1.016265 2.037329 12.229282 1.318723 1.601750 9.787334 1.016265 2.232149 14.821277 -3.259384 3.112446 -10.092530 -3.966122 9.280737 -14.201719 -15.389678 20.028839 -44.131246 45.923636 94.364429 -12.122818 9.709634 -15.678819 -3.298364 -5.774345 20.446182 -3.304527 -1.945191 -5.303892 -4.944619 -83.431012 -62.152785 -4.644578 -40.491746 -2.845343 9.157527 26.315618 -20.797868 -46.221880 21.496070 -123.679059 65.754345 -134.085209 -14.331715 -22.380589 10.615840 -0.161359 0.237342 -0.073332 19.673932 -55.138663 0.210882 135.704657 66.349184 152.402135 -8.543774 -24.325543 -0.158473 0.037016 -0.222368 0.014168
-9.275768 50.903835 -16.069338 31.961283 -30.838515 -6.391545 2.800376 17.099007 2.055031 1.606566 9.788804 1.015895 2.043367 12.231106 1.318398 1.606566 9.788804 1.015895 2.228187 14.806766 -3.264682 3.109510 -10.107764 -3.970889 9.327710 -14.206222 -15.421536 20.070540 -44.139575 45.899388 94.279601 -12.112092 9.670720 -15.648306 -3.310677 -5.787925 20.460479 -3.316901 -1.957244 -5.317020 -4.942372 -83.419426 -62.162937 -4.673796 -40.486705 -2.830148 9.155718 26.299930 -20.809891 -46.246839 21.529443 -123.685315 65.747923 -134.088925 -14.314240 -22.386633 10.611548 -0.153735 0.235797 -0.068797 19.679767 -55.174061 0.223670 135.713976 66.349722 152.414814 -8.545732 -24.335226 -0.150067 0.031080 -0.218154 0.009129
-9.274625 50.902926 -16.067470 31.940974 -30.808308 -6.402924 2.809812 17.102040 2.052275 1.611897 9.790294 1.014910 2.050036 12.232956 1.317317 1.611897 9.790294 1.014911 2.227254 14.791836 -3.269363 3.109682 -10.123376 -3.975743 9.373004 -14.213164 -15.447516 20.118843 -44.146877 45.869526 94.207901 -12.080230 9.618817 -15.650217 -3.311775 -5.787399 20.472321 -3.334318 -1.966365 -5.325610 -4.941376 -83.407016 -62.173133 -4.694949 -40.492958 -2.817194 9.151013 26.294745 -20.821261 -46.270965 21.561789 -123.688004 65.742445 -134.087878 -14.291808 -22.393634 10.606169 -0.154323 0.235347 -0.066658 19.684697 -55.211138 0.239301 135.725022 66.347295 152.428080 -8.541700 -24.343539 -0.145446 0.028590 -0.216846 0.006016
